<svg width="53" height="53" viewBox="0 0 53 53" fill="none" xmlns="http://www.w3.org/2000/svg">
<path fill-rule="evenodd" clip-rule="evenodd" d="M15.3899 5.45238C15.5437 5.29813 15.7265 5.17576 15.9277 5.09227C16.1289 5.00877 16.3446 4.96579 16.5625 4.96579C16.7804 4.96579 16.9961 5.00877 17.1973 5.09227C17.3985 5.17576 17.5813 5.29813 17.7351 5.45238L37.6101 25.3274C37.7644 25.4812 37.8867 25.664 37.9702 25.8652C38.0537 26.0664 38.0967 26.2821 38.0967 26.5C38.0967 26.7179 38.0537 26.9336 37.9702 27.1348C37.8867 27.336 37.7644 27.5188 37.6101 27.6726L17.7351 47.5476C17.4241 47.8586 17.0023 48.0333 16.5625 48.0333C16.1227 48.0333 15.7009 47.8586 15.3899 47.5476C15.0789 47.2366 14.9042 46.8148 14.9042 46.375C14.9042 45.9352 15.0789 45.5134 15.3899 45.2024L34.0956 26.5L15.3899 7.79763C15.2356 7.64377 15.1133 7.46101 15.0298 7.25979C14.9463 7.05857 14.9033 6.84285 14.9033 6.625C14.9033 6.40715 14.9463 6.19143 15.0298 5.99021C15.1133 5.789 15.2356 5.60623 15.3899 5.45238Z" fill="white"/>
</svg>
