<svg width="26" height="27" viewBox="0 0 26 27" fill="none" xmlns="http://www.w3.org/2000/svg">
<path d="M25 23.0393V13.7634C25.0001 13.1181 24.8667 12.4795 24.6082 11.8868C24.3497 11.2941 23.9713 10.7599 23.4964 10.3167L14.6488 2.05776C14.2032 1.64164 13.6132 1.40979 13 1.40979C12.3868 1.40979 11.7968 1.64164 11.3512 2.05776L2.5036 10.3167C2.02867 10.7599 1.65034 11.2941 1.3918 11.8868C1.13325 12.4795 0.999931 13.1181 1 13.7634V23.0393C1 23.668 1.25286 24.2709 1.70294 24.7155C2.15303 25.16 2.76348 25.4098 3.4 25.4098H22.6C23.2365 25.4098 23.847 25.16 24.2971 24.7155C24.7471 24.2709 25 23.668 25 23.0393Z" stroke="black" stroke-width="2" stroke-linecap="round" stroke-linejoin="round"/>
</svg>
