<svg width="149" height="63" viewBox="0 0 149 63" fill="none" xmlns="http://www.w3.org/2000/svg">
<path d="M32.3165 0H109L76.6831 40H0L32.3165 0Z" fill="white"/>
<path d="M106.086 17H149L130.914 40H88L106.086 17Z" fill="white"/>
<path d="M120.191 0H142L132.809 11H111L120.191 0Z" fill="white"/>
<path d="M48.6744 59.4425H37V47H38.7469V57.6637H48.6744V59.4425ZM61.6358 54.5574C61.6358 55.2284 61.5107 55.8589 61.2606 56.449C61.0104 57.039 60.6701 57.5567 60.2379 58.0019C59.8121 58.4414 59.3094 58.7915 58.73 59.0521C58.1503 59.3062 57.5311 59.4365 56.8721 59.4425H54.1879C53.5289 59.4365 52.9096 59.3062 52.3301 59.0521C51.7507 58.7915 51.2451 58.4414 50.8133 58.0019C50.3873 57.5567 50.0492 57.039 49.7993 56.449C49.5493 55.8589 49.4243 55.2284 49.4243 54.5574C49.4243 53.8864 49.5493 53.2559 49.7993 52.6659C50.0492 52.0701 50.3873 51.5524 50.8133 51.1128C51.2451 50.6673 51.7507 50.3174 52.3301 50.0629C52.9096 49.8026 53.5289 49.6725 54.1879 49.6725H56.8721C57.3096 49.6725 57.7328 49.7303 58.1418 49.846C58.5509 49.9616 58.9313 50.1265 59.2838 50.3406C59.6358 50.5546 59.9569 50.812 60.2466 51.1128C60.5363 51.4078 60.7836 51.7375 60.9877 52.1019C61.1925 52.4606 61.3513 52.8481 61.4653 53.2646C61.5788 53.6811 61.6358 54.112 61.6358 54.5574ZM59.897 54.5574C59.897 54.1294 59.8179 53.7274 59.6585 53.3514C59.4997 52.9754 59.2838 52.6486 59.011 52.3709C58.7382 52.0875 58.4174 51.8647 58.0481 51.7028C57.6845 51.5351 57.2925 51.4483 56.8721 51.4425H54.1879C53.7674 51.4483 53.3726 51.5351 53.0033 51.7028C52.6397 51.8647 52.3217 52.0875 52.0489 52.3709C51.7763 52.6486 51.5604 52.9754 51.4013 53.3514C51.2479 53.7274 51.1712 54.1294 51.1712 54.5574C51.1712 54.9855 51.2479 55.3875 51.4013 55.7635C51.5604 56.1395 51.7763 56.4692 52.0489 56.7526C52.3217 57.0303 52.6397 57.253 53.0033 57.4207C53.3726 57.5827 53.7674 57.6637 54.1879 57.6637H56.8721C57.2925 57.6637 57.6845 57.5827 58.0481 57.4207C58.4174 57.253 58.7382 57.0303 59.011 56.7526C59.2838 56.4692 59.4997 56.1395 59.6585 55.7635C59.8179 55.3875 59.897 54.9855 59.897 54.5574ZM74.2472 59.8849C74.2472 60.3185 74.1652 60.7237 74.0006 61.0998C73.8412 61.4759 73.6224 61.8053 73.3444 62.089C73.0715 62.3721 72.7475 62.5948 72.3729 62.7571C72.0035 62.9189 71.6085 63 71.1885 63H64.2094V61.2212H71.1885C71.3641 61.2212 71.5317 61.1863 71.6911 61.117C71.8499 61.0477 71.9895 60.9523 72.1088 60.8309C72.228 60.7095 72.3217 60.5673 72.3897 60.4056C72.4636 60.2433 72.5003 60.0697 72.5003 59.8849V51.4425H67.7027C67.2827 51.4483 66.8877 51.5351 66.5183 51.7028C66.1547 51.8647 65.8365 52.0875 65.5642 52.3709C65.2914 52.6486 65.0756 52.9754 64.9162 53.3514C64.7632 53.7274 64.6864 54.1294 64.6864 54.5574C64.6864 54.9855 64.7632 55.3875 64.9162 55.7635C65.0756 56.1337 65.2914 56.4605 65.5642 56.7439C65.8365 57.0216 66.1547 57.2443 66.5183 57.4121C66.8877 57.574 67.2827 57.6579 67.7027 57.6637H71.6311V59.4425H67.7027C67.0442 59.4365 66.4246 59.3062 65.8452 59.0521C65.2658 58.7915 64.7603 58.4414 64.3286 58.0019C63.9022 57.5567 63.5642 57.039 63.3141 56.449C63.0645 55.8589 62.9395 55.2284 62.9395 54.5574C62.9395 53.8864 63.0645 53.2559 63.3141 52.6659C63.5642 52.0759 63.9022 51.5611 64.3286 51.1214C64.7603 50.6761 65.2658 50.3261 65.8452 50.0716C66.4246 49.8113 67.0442 49.6782 67.7027 49.6725H74.2472V59.8849ZM87.4555 59.8849C87.4555 60.3185 87.3735 60.7237 87.2088 61.0998C87.0494 61.4759 86.8307 61.8053 86.5526 62.089C86.2798 62.3721 85.9558 62.5948 85.5811 62.7571C85.2117 62.9189 84.8167 63 84.3967 63H77.4177V61.2212H84.3967C84.5724 61.2212 84.7405 61.1863 84.8993 61.117C85.0582 61.0477 85.1978 60.9523 85.317 60.8309C85.4363 60.7095 85.5299 60.5673 85.598 60.4056C85.6719 60.2433 85.7091 60.0697 85.7091 59.8849V51.4425H80.911C80.491 51.4483 80.096 51.5351 79.7266 51.7028C79.363 51.8647 79.0448 52.0875 78.7725 52.3709C78.4997 52.6486 78.2839 52.9754 78.1245 53.3514C77.9715 53.7274 77.8947 54.1294 77.8947 54.5574C77.8947 54.9855 77.9715 55.3875 78.1245 55.7635C78.2839 56.1337 78.4997 56.4605 78.7725 56.7439C79.0448 57.0216 79.363 57.2443 79.7266 57.4121C80.096 57.574 80.491 57.6579 80.911 57.6637H84.8394V59.4425H80.911C80.2524 59.4365 79.6329 59.3062 79.0535 59.0521C78.4741 58.7915 77.9686 58.4414 77.5369 58.0019C77.1105 57.5567 76.7725 57.039 76.5229 56.449C76.2728 55.8589 76.1477 55.2284 76.1477 54.5574C76.1477 53.8864 76.2728 53.2559 76.5229 52.6659C76.7725 52.0759 77.1105 51.5611 77.5369 51.1214C77.9686 50.6761 78.4741 50.3261 79.0535 50.0716C79.6329 49.8113 80.2524 49.6782 80.911 49.6725H87.4555V59.8849ZM101.133 52.7787C101.133 53.2125 101.053 53.6174 100.894 53.9935C100.735 54.3694 100.517 54.6992 100.238 54.9826C99.9651 55.2603 99.6416 55.48 99.2664 55.642C98.897 55.804 98.5026 55.8849 98.082 55.8849H91.3927C91.5177 56.1453 91.6736 56.3853 91.8615 56.6052C92.0489 56.825 92.2589 57.0129 92.4921 57.1691C92.7248 57.3253 92.9779 57.4468 93.2501 57.5335C93.5288 57.6203 93.8185 57.6637 94.1198 57.6637H99.829V59.4425H94.1198C93.4607 59.4365 92.8412 59.3062 92.2618 59.0521C91.6824 58.7915 91.1768 58.4414 90.7452 58.0019C90.3188 57.5567 89.9808 57.039 89.7312 56.449C89.4811 55.8589 89.356 55.2284 89.356 54.5574C89.356 53.8864 89.4811 53.2559 89.7312 52.6659C89.9808 52.0759 90.3188 51.5611 90.7452 51.1214C91.1768 50.6761 91.6824 50.3261 92.2618 50.0716C92.8412 49.8113 93.4607 49.6782 94.1198 49.6725H98.082C98.5026 49.6725 98.897 49.7534 99.2664 49.9154C99.6416 50.0774 99.9651 50.3 100.238 50.5835C100.517 50.8612 100.735 51.188 100.894 51.564C101.053 51.94 101.133 52.3449 101.133 52.7787ZM98.082 54.1149C98.2583 54.1149 98.4258 54.0802 98.5846 54.0108C98.744 53.9414 98.8831 53.846 99.0023 53.7245C99.1216 53.603 99.2152 53.4612 99.2839 53.2993C99.3519 53.1374 99.3857 52.9638 99.3857 52.7787C99.3857 52.5994 99.3519 52.4288 99.2839 52.2668C99.2152 52.1048 99.1216 51.9631 99.0023 51.8416C98.8831 51.7202 98.744 51.6247 98.5846 51.5553C98.4258 51.4801 98.2583 51.4425 98.082 51.4425H94.1198C93.733 51.4425 93.3694 51.5119 93.0291 51.6507C92.6934 51.7896 92.3927 51.9804 92.1256 52.2234C91.8644 52.4606 91.6457 52.744 91.4694 53.0737C91.299 53.3976 91.1879 53.7447 91.1373 54.1149H98.082ZM114 59.4425H111.512L107.771 55.7635L104.107 59.4425H101.61L106.57 54.5748L101.61 49.6725H104.107L114 59.4425ZM114 49.6725L109.85 53.7939L108.597 52.6572L111.512 49.6725H114Z" fill="white"/>
</svg>
