<svg width="234" height="108" viewBox="0 0 234 108" fill="none" xmlns="http://www.w3.org/2000/svg">
<path d="M50.781 0H171.279L120.497 62.3381H0L50.781 0Z" fill="url(#paint0_linear_57_3171)"/>
<path d="M166.114 27.9446H234L205.391 62.338H137.505L166.114 27.9446Z" fill="#060657"/>
<path d="M187.893 0H221.12L207.117 17.1967H173.89L187.893 0Z" fill="#FF1717"/>
<path d="M75.894 93.7888H57.5504V74.563H60.2952V91.0403H75.894V93.7888ZM96.2599 86.2405C96.2599 87.2773 96.0634 88.2516 95.6703 89.1633C95.2773 90.075 94.7425 90.8749 94.0634 91.5629C93.3943 92.242 92.6046 92.783 91.6942 93.1857C90.7833 93.5783 89.8103 93.7797 88.7748 93.7888H84.5572C83.5217 93.7797 82.5487 93.5783 81.6382 93.1857C80.7277 92.783 79.9333 92.242 79.2549 91.5629C78.5854 90.8749 78.0542 90.075 77.6615 89.1633C77.2687 88.2516 77.0723 87.2773 77.0723 86.2405C77.0723 85.2037 77.2687 84.2295 77.6615 83.3179C78.0542 82.3972 78.5854 81.5973 79.2549 80.918C79.9333 80.2297 80.7277 79.689 81.6382 79.2957C82.5487 78.8935 83.5217 78.6924 84.5572 78.6924H88.7748C89.4622 78.6924 90.1272 78.7818 90.7699 78.9605C91.4126 79.1393 92.0104 79.3941 92.5643 79.7247C93.1173 80.0554 93.6219 80.4532 94.0771 80.918C94.5323 81.3738 94.9208 81.8833 95.2416 82.4463C95.5634 83.0005 95.8129 83.5994 95.9921 84.2429C96.1703 84.8864 96.2599 85.5524 96.2599 86.2405ZM93.5278 86.2405C93.5278 85.5792 93.4035 84.958 93.153 84.377C92.9035 83.796 92.5643 83.291 92.1356 82.862C91.7069 82.424 91.2028 82.0799 90.6226 81.8296C90.0513 81.5704 89.4354 81.4364 88.7748 81.4274H84.5572C83.8966 81.4364 83.2762 81.5704 82.6959 81.8296C82.1247 82.0799 81.6248 82.424 81.1963 82.862C80.7679 83.291 80.4287 83.796 80.1787 84.377C79.9378 84.958 79.8172 85.5792 79.8172 86.2405C79.8172 86.902 79.9378 87.5232 80.1787 88.1042C80.4287 88.6851 80.7679 89.1946 81.1963 89.6326C81.6248 90.0615 82.1247 90.4057 82.6959 90.6649C83.2762 90.9152 83.8966 91.0403 84.5572 91.0403H88.7748C89.4354 91.0403 90.0513 90.9152 90.6226 90.6649C91.2028 90.4057 91.7069 90.0615 92.1356 89.6326C92.5643 89.1946 92.9035 88.6851 93.153 88.1042C93.4035 87.5232 93.5278 86.902 93.5278 86.2405ZM116.076 94.4725C116.076 95.1425 115.947 95.7685 115.688 96.3497C115.438 96.9309 115.094 97.4398 114.657 97.8782C114.229 98.3157 113.719 98.6598 113.131 98.9106C112.55 99.1604 111.93 99.2858 111.27 99.2858H100.304V96.5373H111.27C111.546 96.5373 111.809 96.4833 112.059 96.3762C112.309 96.2692 112.528 96.1218 112.716 95.9342C112.903 95.7465 113.05 95.5269 113.157 95.277C113.273 95.0262 113.331 94.7581 113.331 94.4725V81.4274H105.793C105.133 81.4364 104.512 81.5704 103.932 81.8296C103.36 82.0799 102.86 82.424 102.433 82.862C102.004 83.291 101.665 83.796 101.414 84.377C101.174 84.958 101.053 85.5792 101.053 86.2405C101.053 86.902 101.174 87.5232 101.414 88.1042C101.665 88.6762 102.004 89.1812 102.433 89.6191C102.86 90.0482 103.36 90.3923 103.932 90.6515C104.512 90.9017 105.133 91.0313 105.793 91.0403H111.965V93.7888H105.793C104.758 93.7797 103.784 93.5783 102.874 93.1857C101.964 92.783 101.169 92.242 100.491 91.5629C99.8211 90.8749 99.29 90.075 98.897 89.1633C98.5048 88.2516 98.3083 87.2773 98.3083 86.2405C98.3083 85.2037 98.5048 84.2295 98.897 83.3179C99.29 82.4062 99.8211 81.6106 100.491 80.9313C101.169 80.2431 101.964 79.7024 102.874 79.3091C103.784 78.9069 104.758 78.7013 105.793 78.6924H116.076V94.4725ZM136.83 94.4725C136.83 95.1425 136.701 95.7685 136.442 96.3497C136.192 96.9309 135.848 97.4398 135.411 97.8782C134.982 98.3157 134.473 98.6598 133.885 98.9106C133.304 99.1604 132.683 99.2858 132.024 99.2858H121.057V96.5373H132.024C132.3 96.5373 132.564 96.4833 132.813 96.3762C133.063 96.2692 133.282 96.1218 133.47 95.9342C133.657 95.7465 133.804 95.5269 133.911 95.277C134.027 95.0262 134.086 94.7581 134.086 94.4725V81.4274H126.546C125.886 81.4364 125.266 81.5704 124.685 81.8296C124.114 82.0799 123.614 82.424 123.186 82.862C122.758 83.291 122.419 83.796 122.168 84.377C121.928 84.958 121.807 85.5792 121.807 86.2405C121.807 86.902 121.928 87.5232 122.168 88.1042C122.419 88.6762 122.758 89.1812 123.186 89.6191C123.614 90.0482 124.114 90.3923 124.685 90.6515C125.266 90.9017 125.886 91.0313 126.546 91.0403H132.719V93.7888H126.546C125.512 93.7797 124.538 93.5783 123.628 93.1857C122.717 92.783 121.923 92.242 121.245 91.5629C120.575 90.8749 120.044 90.075 119.652 89.1633C119.259 88.2516 119.062 87.2773 119.062 86.2405C119.062 85.2037 119.259 84.2295 119.652 83.3179C120.044 82.4062 120.575 81.6106 121.245 80.9313C121.923 80.2431 122.717 79.7024 123.628 79.3091C124.538 78.9069 125.512 78.7013 126.546 78.6924H136.83V94.4725ZM158.32 83.4921C158.32 84.1624 158.195 84.7881 157.945 85.3691C157.696 85.95 157.352 86.4596 156.914 86.8975C156.486 87.3266 155.977 87.6661 155.388 87.9165C154.807 88.1667 154.188 88.2918 153.527 88.2918H143.016C143.213 88.6941 143.458 89.065 143.753 89.4047C144.047 89.7443 144.377 90.0347 144.744 90.2761C145.109 90.5174 145.507 90.7051 145.935 90.8391C146.372 90.9732 146.828 91.0403 147.301 91.0403H156.272V93.7888H147.301C146.266 93.7797 145.292 93.5783 144.382 93.1857C143.471 92.783 142.677 92.242 141.999 91.5629C141.329 90.8749 140.798 90.075 140.405 89.1633C140.012 88.2516 139.816 87.2773 139.816 86.2405C139.816 85.2037 140.012 84.2295 140.405 83.3179C140.798 82.4062 141.329 81.6106 141.999 80.9313C142.677 80.2431 143.471 79.7024 144.382 79.3091C145.292 78.9069 146.266 78.7013 147.301 78.6924H153.527C154.188 78.6924 154.807 78.8175 155.388 79.0678C155.977 79.3181 156.486 79.6621 156.914 80.1001C157.352 80.5292 157.696 81.0342 157.945 81.6151C158.195 82.1961 158.32 82.8218 158.32 83.4921ZM153.527 85.5568C153.804 85.5568 154.067 85.5032 154.317 85.3959C154.567 85.2887 154.785 85.1412 154.973 84.9535C155.16 84.7658 155.307 84.5468 155.415 84.2965C155.522 84.0463 155.575 83.7781 155.575 83.4921C155.575 83.2151 155.522 82.9514 155.415 82.7011C155.307 82.4508 155.16 82.2318 154.973 82.0442C154.785 81.8565 154.567 81.709 154.317 81.6018C154.067 81.4855 153.804 81.4274 153.527 81.4274H147.301C146.693 81.4274 146.122 81.5347 145.587 81.7492C145.06 81.9637 144.587 82.2586 144.168 82.6341C143.757 83.0005 143.414 83.4385 143.137 83.9479C142.869 84.4485 142.694 84.9848 142.615 85.5568H153.527ZM178.538 93.7888H174.629L168.751 88.1042L162.994 93.7888H159.071L166.863 86.2673L159.071 78.6924H162.994L178.538 93.7888ZM178.538 78.6924L172.018 85.0608L170.049 83.3044L174.629 78.6924H178.538Z" fill="#060657"/>
<defs>
<linearGradient id="paint0_linear_57_3171" x1="122.27" y1="62.2702" x2="-0.145709" y2="-49.974" gradientUnits="userSpaceOnUse">
<stop stop-color="#060657"/>
<stop offset="1" stop-color="#2222BA" stop-opacity="0.5"/>
</linearGradient>
</defs>
</svg>
