<svg width="26" height="29" viewBox="0 0 26 29" fill="none" xmlns="http://www.w3.org/2000/svg">
<path d="M3.875 12.5625H9.6875V14.5H3.875V12.5625ZM3.875 4.8125H15.5V6.75H3.875V4.8125ZM3.875 8.6875H15.5V10.625H3.875V8.6875ZM3.875 22.25H9.6875V24.1875H3.875V22.25ZM25.1875 22.25V20.3125H23.1522C23.0272 19.7061 22.7864 19.1295 22.443 18.6143L23.8865 17.1708L22.5167 15.801L21.0732 17.2445C20.558 16.9011 19.9814 16.6603 19.375 16.5353V14.5H17.4375V16.5353C16.8311 16.6603 16.2545 16.9011 15.7393 17.2445L14.2958 15.801L12.926 17.1708L14.3695 18.6143C14.0261 19.1295 13.7853 19.7061 13.6603 20.3125H11.625V22.25H13.6603C13.7853 22.8564 14.0261 23.433 14.3695 23.9482L12.926 25.3917L14.2958 26.7615L15.7393 25.318C16.2545 25.6614 16.8311 25.9022 17.4375 26.0272V28.0625H19.375V26.0272C19.9814 25.9022 20.558 25.6614 21.0732 25.318L22.5167 26.7615L23.8865 25.3917L22.443 23.9482C22.7864 23.433 23.0272 22.8564 23.1522 22.25H25.1875ZM18.4062 24.1875C17.8314 24.1875 17.2696 24.0171 16.7916 23.6977C16.3137 23.3784 15.9412 22.9245 15.7212 22.3934C15.5013 21.8624 15.4437 21.278 15.5558 20.7143C15.668 20.1505 15.9448 19.6327 16.3512 19.2262C16.7577 18.8198 17.2755 18.543 17.8393 18.4308C18.403 18.3187 18.9874 18.3763 19.5184 18.5962C20.0495 18.8162 20.5034 19.1887 20.8227 19.6666C21.1421 20.1446 21.3125 20.7064 21.3125 21.2812C21.3117 22.0518 21.0053 22.7906 20.4604 23.3354C19.9156 23.8803 19.1768 24.1867 18.4062 24.1875Z" fill="black"/>
<path d="M9.6875 28.0625H1.9375C1.4238 28.062 0.931288 27.8577 0.568047 27.4945C0.204807 27.1312 0.00051293 26.6387 0 26.125V2.875C0.00051293 2.3613 0.204807 1.86879 0.568047 1.50555C0.931288 1.14231 1.4238 0.938013 1.9375 0.9375H17.4375C17.9512 0.938013 18.4437 1.14231 18.807 1.50555C19.1702 1.86879 19.3745 2.3613 19.375 2.875V12.5625H17.4375V2.875H1.9375V26.125H9.6875V28.0625Z" fill="black"/>
</svg>
