<svg width="27" height="17" viewBox="0 0 27 17" fill="none" xmlns="http://www.w3.org/2000/svg">
<path d="M9.36129 5.94244C9.27171 5.85449 9.1653 5.78471 9.04815 5.7371C8.931 5.68949 8.80541 5.66498 8.67857 5.66498C8.55173 5.66498 8.42614 5.68949 8.30899 5.7371C8.19184 5.78471 8.08543 5.85449 7.99586 5.94244L6.75 7.16456L5.50414 5.94244C5.41449 5.85463 5.30805 5.78498 5.19091 5.73746C5.07377 5.68993 4.94822 5.66547 4.82143 5.66547C4.69464 5.66547 4.56909 5.68993 4.45195 5.73746C4.33481 5.78498 4.22837 5.85463 4.13871 5.94244C4.04906 6.03025 3.97794 6.1345 3.92942 6.24923C3.8809 6.36396 3.85592 6.48693 3.85592 6.61111C3.85592 6.73529 3.8809 6.85826 3.92942 6.97299C3.97794 7.08772 4.04906 7.19197 4.13871 7.27978L5.3865 8.5L4.13871 9.72022C4.04906 9.80803 3.97794 9.91228 3.92942 10.027C3.8809 10.1417 3.85592 10.2647 3.85592 10.3889C3.85592 10.5131 3.8809 10.636 3.92942 10.7508C3.97794 10.8655 4.04906 10.9697 4.13871 11.0576C4.31978 11.2349 4.56536 11.3345 4.82143 11.3345C4.94822 11.3345 5.07377 11.3101 5.19091 11.2625C5.30805 11.215 5.41449 11.1454 5.50414 11.0576L6.75 9.83544L7.99586 11.0576C8.08551 11.1454 8.19195 11.215 8.30909 11.2625C8.42623 11.3101 8.55178 11.3345 8.67857 11.3345C8.80536 11.3345 8.93091 11.3101 9.04805 11.2625C9.1652 11.215 9.27163 11.1454 9.36129 11.0576C9.45094 10.9697 9.52206 10.8655 9.57058 10.7508C9.6191 10.636 9.64408 10.5131 9.64408 10.3889C9.64408 10.2647 9.6191 10.1417 9.57058 10.027C9.52206 9.91228 9.45094 9.80803 9.36129 9.72022L8.1135 8.5L9.36129 7.27978C9.45109 7.19205 9.52233 7.08783 9.57095 6.97309C9.61956 6.85835 9.64458 6.73534 9.64458 6.61111C9.64458 6.48688 9.61956 6.36388 9.57095 6.24914C9.52233 6.1344 9.45109 6.03017 9.36129 5.94244ZM15.7101 5.94244C15.7998 5.85463 15.9062 5.78498 16.0234 5.73746C16.1405 5.68993 16.2661 5.66547 16.3929 5.66547C16.5196 5.66547 16.6452 5.68993 16.7623 5.73746C16.8795 5.78498 16.9859 5.85463 17.0756 5.94244C17.1652 6.03025 17.2363 6.1345 17.2849 6.24923C17.3334 6.36396 17.3584 6.48693 17.3584 6.61111C17.3584 6.73529 17.3334 6.85826 17.2849 6.97299C17.2363 7.08772 17.1652 7.19197 17.0756 7.27978L15.8278 8.5L17.0756 9.72022C17.2566 9.89756 17.3584 10.1381 17.3584 10.3889C17.3584 10.6397 17.2566 10.8802 17.0756 11.0576C16.8945 11.2349 16.6489 11.3345 16.3929 11.3345C16.1368 11.3345 15.8912 11.2349 15.7101 11.0576L14.4643 9.83544L13.2184 11.0576C13.1288 11.1454 13.0223 11.215 12.9052 11.2625C12.7881 11.3101 12.6625 11.3345 12.5357 11.3345C12.4089 11.3345 12.2834 11.3101 12.1662 11.2625C12.0491 11.215 11.9427 11.1454 11.853 11.0576C11.7633 10.9697 11.6922 10.8655 11.6437 10.7508C11.5952 10.636 11.5702 10.5131 11.5702 10.3889C11.5702 10.2647 11.5952 10.1417 11.6437 10.027C11.6922 9.91228 11.7633 9.80803 11.853 9.72022L13.1008 8.5L11.853 7.27978C11.7633 7.19197 11.6922 7.08772 11.6437 6.97299C11.5952 6.85826 11.5702 6.73529 11.5702 6.61111C11.5702 6.48693 11.5952 6.36396 11.6437 6.24923C11.6922 6.1345 11.7633 6.03025 11.853 5.94244C11.9427 5.85463 12.0491 5.78498 12.1662 5.73746C12.2834 5.68993 12.4089 5.66547 12.5357 5.66547C12.6625 5.66547 12.7881 5.68993 12.9052 5.73746C13.0223 5.78498 13.1288 5.85463 13.2184 5.94244L14.4643 7.16456L15.7101 5.94244ZM20.25 9.44444C19.9943 9.44444 19.749 9.54395 19.5681 9.72106C19.3873 9.89818 19.2857 10.1384 19.2857 10.3889C19.2857 10.6394 19.3873 10.8796 19.5681 11.0567C19.749 11.2338 19.9943 11.3333 20.25 11.3333H22.1786C22.4343 11.3333 22.6796 11.2338 22.8604 11.0567C23.0413 10.8796 23.1429 10.6394 23.1429 10.3889C23.1429 10.1384 23.0413 9.89818 22.8604 9.72106C22.6796 9.54395 22.4343 9.44444 22.1786 9.44444H20.25ZM4.82143 0C3.54271 0 2.31636 0.497518 1.41216 1.38311C0.50797 2.2687 0 3.46981 0 4.72222V12.2778C0 12.8979 0.12471 13.512 0.367009 14.0849C0.609309 14.6578 0.964453 15.1784 1.41216 15.6169C2.31636 16.5025 3.54271 17 4.82143 17H22.1786C22.8117 17 23.4387 16.8779 24.0237 16.6405C24.6086 16.4032 25.1401 16.0554 25.5878 15.6169C26.0355 15.1784 26.3907 14.6578 26.633 14.0849C26.8753 13.512 27 12.8979 27 12.2778V4.72222C27 3.46981 26.492 2.2687 25.5878 1.38311C24.6836 0.497518 23.4573 0 22.1786 0H4.82143ZM1.92857 4.72222C1.92857 3.97078 2.23335 3.25011 2.77587 2.71875C3.31839 2.1874 4.0542 1.88889 4.82143 1.88889H22.1786C22.9458 1.88889 23.6816 2.1874 24.2241 2.71875C24.7666 3.25011 25.0714 3.97078 25.0714 4.72222V12.2778C25.0714 13.0292 24.7666 13.7499 24.2241 14.2812C23.6816 14.8126 22.9458 15.1111 22.1786 15.1111H4.82143C4.0542 15.1111 3.31839 14.8126 2.77587 14.2812C2.23335 13.7499 1.92857 13.0292 1.92857 12.2778V4.72222Z" fill="#9C9C9C"/>
</svg>
