<svg width="31" height="31" viewBox="0 0 31 31" fill="none" xmlns="http://www.w3.org/2000/svg">
<path d="M5.84659 5.81514C5.3413 5.81463 4.84088 5.91377 4.37396 6.1069C3.90704 6.30003 3.48279 6.58335 3.1255 6.94064C2.76821 7.29793 2.4849 7.72217 2.29177 8.18909C2.09864 8.65601 1.99949 9.15643 2 9.66172C2 12.546 5.84659 16.8046 5.84659 16.8046C5.84659 16.8046 9.69317 12.546 9.69317 9.66172C9.69368 9.15643 9.59453 8.65601 9.4014 8.18909C9.20827 7.72217 8.92496 7.29793 8.56767 6.94064C8.21038 6.58335 7.78613 6.30003 7.31921 6.1069C6.85229 5.91377 6.35187 5.81463 5.84659 5.81514ZM5.84659 11.0348C5.57502 11.0348 5.30956 10.9542 5.08376 10.8034C4.85797 10.6525 4.68198 10.438 4.57806 10.1872C4.47414 9.93627 4.44695 9.66019 4.49993 9.39385C4.55291 9.12751 4.68368 8.88285 4.8757 8.69083C5.06772 8.49881 5.31237 8.36804 5.57872 8.31506C5.84506 8.26208 6.12113 8.28927 6.37203 8.39319C6.62292 8.49712 6.83736 8.6731 6.98823 8.8989C7.1391 9.12469 7.21963 9.39016 7.21963 9.66172C7.21929 10.0258 7.07452 10.3748 6.81709 10.6322C6.55967 10.8896 6.21063 11.0344 5.84659 11.0348ZM25.2319 14.5907V9.03655C25.2228 8.4533 25.1342 7.87403 24.9684 7.31476C24.5446 5.83622 23.6066 4.55767 22.3235 3.70954C21.0404 2.86141 19.4965 2.49946 17.9701 2.68893C16.4438 2.87841 15.0353 3.60684 13.9984 4.74295C12.9616 5.87906 12.3647 7.34813 12.3153 8.88543V9.20576L12.3023 10.3295V23.1842H12.2972V23.2371C12.2972 23.9223 12.025 24.5794 11.5405 25.0638C11.0561 25.5483 10.399 25.8205 9.71384 25.8205C9.02869 25.8205 8.37161 25.5483 7.88714 25.0638C7.40267 24.5794 7.1305 23.9223 7.1305 23.2371C7.1305 23.2216 7.13438 23.2061 7.13567 23.1893H7.1305V20.6796H4.54717V23.263H4.54975C4.55061 24.6326 5.0955 25.9457 6.06456 26.9136C7.03362 27.8814 8.34746 28.4247 9.71706 28.4238C11.0867 28.423 12.3998 27.8781 13.3677 26.909C14.3355 25.94 14.8788 24.6261 14.8779 23.2565H14.8805V21.9881H14.887V11.6212L14.8999 9.20576V8.88672C14.9367 7.86987 15.3719 6.90826 16.1115 6.20945C16.8511 5.51064 17.8358 5.13065 18.8531 5.15151C19.8704 5.17236 20.8387 5.59238 21.549 6.32092C22.2594 7.04946 22.6548 8.02809 22.6499 9.04559V14.5675C22.1552 14.8473 21.7668 15.2826 21.5447 15.8057C21.3226 16.3289 21.2793 16.9107 21.4216 17.4609C21.5638 18.0112 21.8836 18.4991 22.3314 18.8491C22.7791 19.1991 23.3299 19.3915 23.8982 19.3967C24.4665 19.4018 25.0206 19.2192 25.4746 18.8774C25.9286 18.5355 26.2571 18.0534 26.4093 17.5058C26.5614 16.9582 26.5286 16.3757 26.3159 15.8487C26.1033 15.3216 25.7227 14.8795 25.2332 14.5907H25.2319Z" fill="black"/>
</svg>
