<svg width="296" height="137" viewBox="0 0 296 137" fill="none" xmlns="http://www.w3.org/2000/svg">
<path d="M64.2358 0H216.66L152.424 79.077H0L64.2358 0Z" fill="white"/>
<path d="M210.128 35.4482H296L259.811 79.0769H173.938L210.128 35.4482Z" fill="white"/>
<path d="M237.676 0H279.707L261.994 21.8143H219.964L237.676 0Z" fill="#FF1717"/>
<path d="M96.0028 118.973H72.7988V94.5846H76.2709V115.486H96.0028V118.973ZM121.765 109.398C121.765 110.713 121.516 111.949 121.019 113.105C120.522 114.262 119.845 115.277 118.986 116.149C118.14 117.011 117.141 117.697 115.989 118.208C114.837 118.706 113.606 118.961 112.296 118.973H106.961C105.651 118.961 104.421 118.706 103.269 118.208C102.117 117.697 101.112 117.011 100.254 116.149C99.4073 115.277 98.7354 114.262 98.2385 113.105C97.7417 111.949 97.4933 110.713 97.4933 109.398C97.4933 108.083 97.7417 106.847 98.2385 105.69C98.7354 104.522 99.4073 103.508 100.254 102.646C101.112 101.773 102.117 101.087 103.269 100.588C104.421 100.078 105.651 99.8229 106.961 99.8229H112.296C113.166 99.8229 114.007 99.9362 114.82 100.163C115.633 100.39 116.389 100.713 117.09 101.132C117.79 101.552 118.428 102.056 119.004 102.646C119.579 103.224 120.071 103.871 120.477 104.585C120.884 105.288 121.199 106.047 121.426 106.864C121.651 107.68 121.765 108.525 121.765 109.398ZM118.309 109.398C118.309 108.559 118.151 107.771 117.835 107.034C117.519 106.297 117.09 105.656 116.548 105.112C116.005 104.556 115.368 104.12 114.634 103.802C113.911 103.474 113.132 103.304 112.296 103.292H106.961C106.126 103.304 105.341 103.474 104.607 103.802C103.884 104.12 103.252 104.556 102.71 105.112C102.168 105.656 101.739 106.297 101.423 107.034C101.118 107.771 100.965 108.559 100.965 109.398C100.965 110.237 101.118 111.025 101.423 111.762C101.739 112.499 102.168 113.145 102.71 113.701C103.252 114.245 103.884 114.681 104.607 115.01C105.341 115.328 106.126 115.486 106.961 115.486H112.296C113.132 115.486 113.911 115.328 114.634 115.01C115.368 114.681 116.005 114.245 116.548 113.701C117.09 113.145 117.519 112.499 117.835 111.762C118.151 111.025 118.309 110.237 118.309 109.398ZM146.831 119.84C146.831 120.69 146.668 121.484 146.341 122.221C146.024 122.959 145.589 123.604 145.037 124.16C144.494 124.715 143.85 125.152 143.106 125.47C142.371 125.787 141.586 125.946 140.752 125.946H126.88V122.459H140.752C141.101 122.459 141.434 122.391 141.751 122.255C142.066 122.119 142.344 121.932 142.581 121.694C142.818 121.456 143.004 121.178 143.139 120.861C143.286 120.543 143.359 120.202 143.359 119.84V103.292H133.823C132.988 103.304 132.203 103.474 131.469 103.802C130.747 104.12 130.114 104.556 129.573 105.112C129.031 105.656 128.602 106.297 128.285 107.034C127.981 107.771 127.828 108.559 127.828 109.398C127.828 110.237 127.981 111.025 128.285 111.762C128.602 112.487 129.031 113.128 129.573 113.684C130.114 114.228 130.747 114.664 131.469 114.993C132.203 115.311 132.988 115.475 133.823 115.486H141.631V118.973H133.823C132.514 118.961 131.283 118.706 130.131 118.208C128.98 117.697 127.975 117.011 127.117 116.149C126.27 115.277 125.598 114.262 125.101 113.105C124.604 111.949 124.356 110.713 124.356 109.398C124.356 108.083 124.604 106.847 125.101 105.69C125.598 104.534 126.27 103.525 127.117 102.663C127.975 101.79 128.98 101.104 130.131 100.605C131.283 100.095 132.514 99.8341 133.823 99.8229H146.831V119.84ZM173.084 119.84C173.084 120.69 172.921 121.484 172.594 122.221C172.277 122.959 171.842 123.604 171.289 124.16C170.747 124.715 170.103 125.152 169.358 125.47C168.624 125.787 167.839 125.946 167.004 125.946H153.133V122.459H167.004C167.353 122.459 167.688 122.391 168.003 122.255C168.319 122.119 168.596 121.932 168.833 121.694C169.07 121.456 169.257 121.178 169.392 120.861C169.539 120.543 169.613 120.202 169.613 119.84V103.292H160.076C159.241 103.304 158.456 103.474 157.722 103.802C156.999 104.12 156.367 104.556 155.826 105.112C155.283 105.656 154.854 106.297 154.538 107.034C154.233 107.771 154.081 108.559 154.081 109.398C154.081 110.237 154.233 111.025 154.538 111.762C154.854 112.487 155.283 113.128 155.826 113.684C156.367 114.228 156.999 114.664 157.722 114.993C158.456 115.311 159.241 115.475 160.076 115.486H167.884V118.973H160.076C158.767 118.961 157.536 118.706 156.384 118.208C155.232 117.697 154.228 117.011 153.37 116.149C152.522 115.277 151.85 114.262 151.354 113.105C150.857 111.949 150.609 110.713 150.609 109.398C150.609 108.083 150.857 106.847 151.354 105.69C151.85 104.534 152.522 103.525 153.37 102.663C154.228 101.79 155.232 101.104 156.384 100.605C157.536 100.095 158.767 99.8341 160.076 99.8229H173.084V119.84ZM200.268 105.911C200.268 106.762 200.11 107.555 199.794 108.292C199.479 109.029 199.044 109.676 198.49 110.231C197.948 110.775 197.305 111.206 196.559 111.524C195.825 111.841 195.041 112 194.205 112H180.909C181.158 112.51 181.468 112.981 181.841 113.412C182.214 113.842 182.631 114.211 183.095 114.517C183.557 114.823 184.06 115.061 184.601 115.231C185.155 115.401 185.731 115.486 186.33 115.486H197.677V118.973H186.33C185.02 118.961 183.788 118.706 182.637 118.208C181.485 117.697 180.48 117.011 179.622 116.149C178.775 115.277 178.103 114.262 177.607 113.105C177.11 111.949 176.861 110.713 176.861 109.398C176.861 108.083 177.11 106.847 177.607 105.69C178.103 104.534 178.775 103.525 179.622 102.663C180.48 101.79 181.485 101.104 182.637 100.605C183.788 100.095 185.02 99.8341 186.33 99.8229H194.205C195.041 99.8229 195.825 99.9816 196.559 100.299C197.305 100.617 197.948 101.053 198.49 101.609C199.044 102.153 199.479 102.793 199.794 103.53C200.11 104.267 200.268 105.061 200.268 105.911ZM194.205 108.53C194.555 108.53 194.888 108.462 195.204 108.326C195.521 108.19 195.797 108.003 196.034 107.765C196.271 107.527 196.457 107.249 196.594 106.932C196.729 106.614 196.796 106.274 196.796 105.911C196.796 105.56 196.729 105.225 196.594 104.908C196.457 104.59 196.271 104.313 196.034 104.075C195.797 103.837 195.521 103.649 195.204 103.513C194.888 103.366 194.555 103.292 194.205 103.292H186.33C185.561 103.292 184.838 103.428 184.162 103.7C183.495 103.973 182.897 104.347 182.366 104.823C181.847 105.288 181.412 105.843 181.062 106.49C180.723 107.125 180.502 107.805 180.402 108.53H194.205ZM225.843 118.973H220.898L213.462 111.762L206.18 118.973H201.218L211.075 109.432L201.218 99.8229H206.18L225.843 118.973ZM225.843 99.8229L217.596 107.901L215.105 105.673L220.898 99.8229H225.843Z" fill="#FF1717"/>
</svg>
