<svg width="27" height="27" viewBox="0 0 27 27" fill="none" xmlns="http://www.w3.org/2000/svg">
<path d="M13.375 25.88C20.2095 25.88 25.75 20.3395 25.75 13.505C25.75 6.67048 20.2095 1.13 13.375 1.13C6.54048 1.13 1 6.67048 1 13.505C1 20.3395 6.54048 25.88 13.375 25.88Z" stroke="black" stroke-width="2" stroke-linecap="round" stroke-linejoin="round"/>
<path d="M13.375 16.255C14.8938 16.255 16.125 15.0238 16.125 13.505C16.125 11.9862 14.8938 10.755 13.375 10.755C11.8562 10.755 10.625 11.9862 10.625 13.505C10.625 15.0238 11.8562 16.255 13.375 16.255Z" stroke="black" stroke-width="2" stroke-linecap="round" stroke-linejoin="round"/>
<path d="M16.125 13.505L25.4062 10.755M13.375 16.255V25.88V16.255ZM10.625 13.505L1.34375 10.755L10.625 13.505Z" stroke="black" stroke-width="2" stroke-linecap="round" stroke-linejoin="round"/>
</svg>
