<svg width="29" height="22" viewBox="0 0 29 22" fill="none" xmlns="http://www.w3.org/2000/svg">
<path d="M3.95833e-09 2.71875C3.95833e-09 1.99769 0.286439 1.30617 0.796303 0.796304C1.30617 0.286439 1.99769 0 2.71875 0H19.0312C19.7523 0 20.4438 0.286439 20.9537 0.796304C21.4636 1.30617 21.75 1.99769 21.75 2.71875V5.4375H23.5988C24.0061 5.43786 24.4081 5.52975 24.7752 5.70638C25.1423 5.883 25.4649 6.13985 25.7194 6.45794L28.4037 9.81106C28.7899 10.2935 29.0002 10.8932 29 11.5112V15.4063C29 16.1273 28.7136 16.8188 28.2037 17.3287C27.6938 17.8386 27.0023 18.125 26.2812 18.125H25.375C25.375 19.0864 24.9931 20.0084 24.3133 20.6883C23.6334 21.3681 22.7114 21.75 21.75 21.75C20.7886 21.75 19.8666 21.3681 19.1867 20.6883C18.5069 20.0084 18.125 19.0864 18.125 18.125H9.0625C9.06354 18.6082 8.96798 19.0867 8.78142 19.5324C8.59487 19.9781 8.32109 20.3821 7.97618 20.7204C7.63127 21.0588 7.22219 21.3249 6.77299 21.5029C6.32379 21.6809 5.84353 21.7673 5.36046 21.757C4.87738 21.7467 4.40123 21.64 3.96 21.4431C3.51878 21.2461 3.12137 20.963 2.79116 20.6102C2.46094 20.2575 2.20457 19.8423 2.03713 19.389C1.86969 18.9358 1.79455 18.4536 1.81612 17.9709C1.28515 17.7841 0.825273 17.437 0.499968 16.9776C0.174663 16.5182 -3.03629e-05 15.9692 3.95833e-09 15.4063V2.71875ZM2.34538 16.2328C2.67308 15.6962 3.13474 15.2542 3.68499 14.9502C4.23524 14.6461 4.85514 14.4904 5.48377 14.4985C6.11239 14.5065 6.72811 14.678 7.2704 14.996C7.81269 15.3141 8.26289 15.7678 8.57675 16.3125H18.6108C18.9296 15.762 19.387 15.3046 19.9375 14.9858V2.71875C19.9375 2.4784 19.842 2.24789 19.6721 2.07793C19.5021 1.90798 19.2716 1.8125 19.0312 1.8125H2.71875C2.4784 1.8125 2.24789 1.90798 2.07793 2.07793C1.90798 2.24789 1.8125 2.4784 1.8125 2.71875V15.4063C1.81236 15.5807 1.86256 15.7515 1.95708 15.8981C2.05161 16.0447 2.18643 16.1609 2.34538 16.2328ZM21.75 14.5C22.3863 14.5 23.0114 14.6675 23.5624 14.9857C24.1135 15.3038 24.5711 15.7614 24.8892 16.3125H26.2812C26.5216 16.3125 26.7521 16.217 26.9221 16.0471C27.092 15.8771 27.1875 15.6466 27.1875 15.4063V11.5094C27.1871 11.3037 27.1168 11.1043 26.9881 10.9439L24.3056 7.59075C24.2209 7.48461 24.1133 7.39888 23.991 7.3399C23.8686 7.28092 23.7346 7.25019 23.5988 7.25H21.75V14.5ZM5.4375 16.3125C4.9568 16.3125 4.49578 16.5035 4.15587 16.8434C3.81596 17.1833 3.625 17.6443 3.625 18.125C3.625 18.6057 3.81596 19.0667 4.15587 19.4066C4.49578 19.7465 4.9568 19.9375 5.4375 19.9375C5.9182 19.9375 6.37922 19.7465 6.71913 19.4066C7.05904 19.0667 7.25 18.6057 7.25 18.125C7.25 17.6443 7.05904 17.1833 6.71913 16.8434C6.37922 16.5035 5.9182 16.3125 5.4375 16.3125ZM21.75 16.3125C21.2693 16.3125 20.8083 16.5035 20.4684 16.8434C20.1285 17.1833 19.9375 17.6443 19.9375 18.125C19.9375 18.6057 20.1285 19.0667 20.4684 19.4066C20.8083 19.7465 21.2693 19.9375 21.75 19.9375C22.2307 19.9375 22.6917 19.7465 23.0316 19.4066C23.3715 19.0667 23.5625 18.6057 23.5625 18.125C23.5625 17.6443 23.3715 17.1833 23.0316 16.8434C22.6917 16.5035 22.2307 16.3125 21.75 16.3125Z" fill="black"/>
</svg>
